<?xml version="1.0" encoding="utf-8"?>
<!-- Generator: Adobe Illustrator 25.2.1, SVG Export Plug-In . SVG Version: 6.00 Build 0)  -->
<svg version="1.1" id="Layer_1" xmlns="http://www.w3.org/2000/svg" xmlns:xlink="http://www.w3.org/1999/xlink" x="0px" y="0px"
	 viewBox="0 0 350 350" style="enable-background:new 0 0 350 350;" xml:space="preserve">
<style type="text/css">
	.st0{fill:#F9E8E8;stroke:#F9E8E8;stroke-miterlimit:10;}
	.st1{fill:none;stroke:#000000;stroke-width:5;stroke-linecap:round;stroke-linejoin:round;stroke-miterlimit:10;}
	.st2{fill:none;stroke:#000000;stroke-miterlimit:10;}
</style>
<circle class="st0" cx="184" cy="203.5" r="117.5"/>
<path class="st1" d="M169.7,275.9c0,0,14.3,23.7,31.5,0.2"/>
<g>
	<circle cx="133" cy="211.5" r="12.5"/>
	<path class="st2" d="M119.5,200c4.5,5.5,4.5,5.5,4.5,5.5"/>
	<path class="st2" d="M126.3,196.1c2.4,6.7,2.4,6.7,2.4,6.7"/>
	<path class="st2" d="M133.3,194.6c0.1,7.1,0.1,7.1,0.1,7.1"/>
</g>
<circle cx="235.5" cy="212" r="12.5"/>
<path class="st2" d="M242.2,196.8c-2,6.8-2,6.8-2,6.8"/>
<path class="st2" d="M246.8,198.9c-3.7,6.1-3.7,6.1-3.7,6.1"/>
<path class="st2" d="M250.6,203.4c-5.5,4.5-5.5,4.5-5.5,4.5"/>
<circle cx="185" cy="241.5" r="5"/>
<g>
	<path d="M216.7,89.1c-7.1,11.1-19.5,18.4-33.7,18.4v31.2c0.6-0.4,1-0.6,1-0.6l116.8,78.3C300.8,216.4,313.8,107.4,216.7,89.1z"/>
	<path d="M183,86.5c4.6-0.1,9.5,0,14.5,0.3c6.8,0.4,13.2,1.2,19.2,2.3c4-6.2,6.3-13.6,6.3-21.6c0-22.1-17.9-40-40-40
		c-20.7,0-37.8,15.8-39.8,36H183V86.5z"/>
	<path d="M183,86.5v21c14.1,0,26.5-7.3,33.7-18.4c-6-1.1-12.3-1.9-19.2-2.3C192.5,86.5,187.6,86.4,183,86.5z"/>
	<path d="M150.1,90.3c9.8-2.3,20.7-3.6,32.9-3.8v-23h-39.8c-0.1,1.3-0.2,2.7-0.2,4C143,76,145.6,83.8,150.1,90.3z"/>
	<path d="M150.1,90.3c7.2,10.4,19.2,17.2,32.9,17.2v-21C170.8,86.7,159.9,88,150.1,90.3z"/>
</g>
<g>
	<path d="M149.3,89.1c7.1,11.1,19.5,18.4,33.7,18.4v31.2c-0.6-0.4-1-0.6-1-0.6L65.2,216.4C65.2,216.4,52.2,107.4,149.3,89.1z"/>
	<path d="M183,86.5c-4.6-0.1-9.5,0-14.5,0.3c-6.8,0.4-13.2,1.2-19.2,2.3c-4-6.2-6.3-13.6-6.3-21.6c0-22.1,17.9-40,40-40
		c20.7,0,37.8,15.8,39.8,36H183V86.5z"/>
	<path d="M183,86.5v21c-14.1,0-26.6-7.3-33.7-18.4c6-1.1,12.3-1.9,19.2-2.3C173.5,86.5,178.4,86.4,183,86.5z"/>
	<path d="M215.9,90.3c-9.8-2.3-20.7-3.6-32.9-3.8v-23h39.8c0.1,1.3,0.2,2.7,0.2,4C223,76,220.4,83.8,215.9,90.3z"/>
	<path d="M215.9,90.3c-7.2,10.4-19.2,17.2-32.9,17.2v-21C195.2,86.7,206.1,88,215.9,90.3z"/>
</g>
</svg>
