<?xml version="1.0" encoding="utf-8"?>
<!-- Generator: Adobe Illustrator 25.2.1, SVG Export Plug-In . SVG Version: 6.00 Build 0)  -->
<svg version="1.1" id="Layer_1" xmlns="http://www.w3.org/2000/svg" xmlns:xlink="http://www.w3.org/1999/xlink" x="0px" y="0px"
	 viewBox="0 0 500 500" style="enable-background:new 0 0 500 500;" xml:space="preserve">
<style type="text/css">
	.st0{fill:#F9E8E8;stroke:#F9E8E8;stroke-miterlimit:10;}
	.st1{fill:none;stroke:#000000;stroke-width:5;stroke-linecap:round;stroke-linejoin:round;stroke-miterlimit:10;}
	.st2{fill:none;stroke:#000000;stroke-miterlimit:10;}
</style>
<circle class="st0" cx="256" cy="243" r="117.5"/>
<path class="st1" d="M241.73,315.35c0,0,14.34,23.72,31.53,0.2"/>
<g>
	<circle cx="205" cy="251" r="12.5"/>
	<path class="st2" d="M191.5,239.5c4.5,5.5,4.5,5.5,4.5,5.5"/>
	<path class="st2" d="M198.31,235.61c2.35,6.71,2.35,6.71,2.35,6.71"/>
	<path class="st2" d="M205.3,234.09c0.13,7.11,0.13,7.11,0.13,7.11"/>
</g>
<circle cx="307.5" cy="251.5" r="12.5"/>
<path class="st2" d="M314.24,236.34c-1.98,6.82-1.98,6.82-1.98,6.82"/>
<path class="st2" d="M318.84,238.43c-3.71,6.06-3.71,6.06-3.71,6.06"/>
<path class="st2" d="M322.62,242.89c-5.5,4.5-5.5,4.5-5.5,4.5"/>
<circle cx="257" cy="281" r="5"/>
<g>
	<path d="M288.67,128.59C281.55,139.66,269.14,147,255,147v31.17c0.64-0.39,1-0.6,1-0.6l116.79,78.34
		C372.79,255.91,385.82,146.88,288.67,128.59z"/>
	<path d="M255,125.97c4.65-0.07,9.47,0.01,14.5,0.3c6.83,0.39,13.2,1.19,19.17,2.31c4-6.23,6.33-13.63,6.33-21.59
		c0-22.09-17.91-40-40-40c-20.74,0-37.79,15.79-39.8,36H255V125.97z"/>
	<path d="M255,125.97V147c14.14,0,26.55-7.34,33.67-18.41c-5.97-1.12-12.34-1.92-19.17-2.31C264.47,125.99,259.65,125.9,255,125.97z
		"/>
	<path d="M222.14,129.8c9.78-2.27,20.7-3.64,32.86-3.82V103h-39.8c-0.13,1.32-0.2,2.65-0.2,4C215,115.48,217.64,123.33,222.14,129.8
		z"/>
	<path d="M222.14,129.8c7.22,10.39,19.24,17.2,32.86,17.2v-21.03C242.84,126.16,231.92,127.52,222.14,129.8z"/>
</g>
<g>
	<path d="M221.33,128.59C228.45,139.66,240.86,147,255,147v31.17c-0.64-0.39-1-0.6-1-0.6l-116.79,78.34
		C137.21,255.91,124.18,146.88,221.33,128.59z"/>
	<path d="M255,125.97c-4.65-0.07-9.47,0.01-14.5,0.3c-6.83,0.39-13.2,1.19-19.17,2.31c-4-6.23-6.33-13.63-6.33-21.59
		c0-22.09,17.91-40,40-40c20.74,0,37.79,15.79,39.8,36H255V125.97z"/>
	<path d="M255,125.97V147c-14.14,0-26.55-7.34-33.67-18.41c5.97-1.12,12.34-1.92,19.17-2.31C245.53,125.99,250.35,125.9,255,125.97z
		"/>
	<path d="M287.86,129.8c-9.78-2.27-20.7-3.64-32.86-3.82V103h39.8c0.13,1.32,0.2,2.65,0.2,4C295,115.48,292.36,123.33,287.86,129.8z
		"/>
	<path d="M287.86,129.8C280.64,140.19,268.62,147,255,147v-21.03C267.16,126.16,278.08,127.52,287.86,129.8z"/>
</g>
</svg>
